<svg xmlns="http://www.w3.org/2000/svg" width="123.38" height="86.366" viewBox="0 0 123.38 86.366">
  <path id="Icon_awesome-dumbbell" data-name="Icon awesome-dumbbell" d="M20.049,14.588H10.8a4.616,4.616,0,0,0-4.627,4.627V39.264H1.542A1.547,1.547,0,0,0,0,40.806V50.06A1.547,1.547,0,0,0,1.542,51.6H6.169V71.651A4.616,4.616,0,0,0,10.8,76.278h9.253a4.616,4.616,0,0,0,4.627-4.627V19.215A4.616,4.616,0,0,0,20.049,14.588ZM121.838,39.264h-4.627V19.215a4.616,4.616,0,0,0-4.627-4.627h-9.253A4.616,4.616,0,0,0,98.7,19.215V71.651a4.616,4.616,0,0,0,4.627,4.627h9.253a4.616,4.616,0,0,0,4.627-4.627V51.6h4.627a1.547,1.547,0,0,0,1.542-1.542V40.806A1.547,1.547,0,0,0,121.838,39.264ZM87.908,2.25H78.655a4.616,4.616,0,0,0-4.627,4.627V39.264H49.352V6.877A4.616,4.616,0,0,0,44.725,2.25H35.472a4.616,4.616,0,0,0-4.627,4.627V83.989a4.616,4.616,0,0,0,4.627,4.627h9.253a4.616,4.616,0,0,0,4.627-4.627V51.6H74.028V83.989a4.616,4.616,0,0,0,4.627,4.627h9.253a4.616,4.616,0,0,0,4.627-4.627V6.877A4.616,4.616,0,0,0,87.908,2.25Z" transform="translate(0 -2.25)"/>
</svg>
