<svg xmlns="http://www.w3.org/2000/svg" width="75" height="60" viewBox="0 0 75 60">
  <path id="Icon_awesome-praying-hands" data-name="Icon awesome-praying-hands" d="M31.875,22.49a3.761,3.761,0,0,0-3.75,3.75v9.375a1.875,1.875,0,0,1-3.75,0V26.644a11.233,11.233,0,0,1,1.6-5.788L35.091,5.67A3.727,3.727,0,0,0,28.848,1.6c-.023.027-.073.025-.093.056L15.014,22.273a11.21,11.21,0,0,0-1.889,6.238v9.4L2.564,41.433A3.747,3.747,0,0,0,0,44.99V56.24a3.751,3.751,0,0,0,4.695,3.629l21-5.463A13.751,13.751,0,0,0,35.625,41.24v-15A3.761,3.761,0,0,0,31.875,22.49ZM72.436,41.443l-10.561-3.52v-9.4a11.21,11.21,0,0,0-1.889-6.238L46.245,1.67c-.021-.032-.069-.028-.093-.056A3.727,3.727,0,0,0,39.909,5.68l9.111,15.186a11.233,11.233,0,0,1,1.6,5.788v8.971a1.875,1.875,0,0,1-3.75,0V26.25a3.75,3.75,0,1,0-7.5,0v15a13.749,13.749,0,0,0,9.932,13.165l21,5.463A3.751,3.751,0,0,0,75,56.249V45a3.749,3.749,0,0,0-2.564-3.557Z" transform="translate(0 0.001)" fill="#fff"/>
</svg>
