<svg id="Icon_ionic-ios-fitness" data-name="Icon ionic-ios-fitness" xmlns="http://www.w3.org/2000/svg" width="105" height="60" viewBox="0 0 105 60">
  <path id="Path_1" data-name="Path 1" d="M58.475,27.782H12.6a1.917,1.917,0,0,1-1.912-1.912V18.224A1.917,1.917,0,0,1,12.6,16.313H58.475a1.917,1.917,0,0,1,1.912,1.912V25.87A1.917,1.917,0,0,1,58.475,27.782Z" transform="translate(16.963 7.953)" fill="#fff"/>
  <path id="Path_2" data-name="Path 2" d="M26.578,63.844V14.156A5.222,5.222,0,0,1,31.835,9h0a5.222,5.222,0,0,1,5.257,5.156V63.844A5.222,5.222,0,0,1,31.835,69h0A5.222,5.222,0,0,1,26.578,63.844Z" transform="translate(54.05 -9)" fill="#fff"/>
  <path id="Path_3" data-name="Path 3" d="M35.716,13.5H32.849a1.917,1.917,0,0,0-1.912,1.912V42.173a1.917,1.917,0,0,0,1.912,1.912h2.867A4.793,4.793,0,0,0,40.5,39.305V18.279A4.793,4.793,0,0,0,35.716,13.5Z" transform="translate(64.505 1.208)" fill="#fff"/>
  <path id="Path_4" data-name="Path 4" d="M16.841,63.844V14.156A5.222,5.222,0,0,0,11.585,9h0a5.222,5.222,0,0,0-5.257,5.156V63.844A5.222,5.222,0,0,0,11.585,69h0A5.222,5.222,0,0,0,16.841,63.844Z" transform="translate(7.53 -9)" fill="#fff"/>
  <path id="Path_5" data-name="Path 5" d="M9.9,13.5H7.029A4.793,4.793,0,0,0,2.25,18.279V39.305a4.793,4.793,0,0,0,4.779,4.779H9.9a1.917,1.917,0,0,0,1.912-1.912V15.412A1.917,1.917,0,0,0,9.9,13.5Z" transform="translate(-2.25 1.208)" fill="#fff"/>
</svg>
