<svg xmlns="http://www.w3.org/2000/svg" width="45" height="31.5" viewBox="0 0 45 31.5">
  <path id="Icon_awesome-dumbbell" data-name="Icon awesome-dumbbell" d="M7.313,6.75H3.938A1.683,1.683,0,0,0,2.25,8.438V15.75H.563A.564.564,0,0,0,0,16.313v3.375a.564.564,0,0,0,.563.563H2.25v7.313A1.683,1.683,0,0,0,3.938,29.25H7.313A1.683,1.683,0,0,0,9,27.563V8.438A1.683,1.683,0,0,0,7.313,6.75Zm37.125,9H42.75V8.438A1.683,1.683,0,0,0,41.063,6.75H37.688A1.683,1.683,0,0,0,36,8.438V27.563a1.683,1.683,0,0,0,1.688,1.688h3.375a1.683,1.683,0,0,0,1.688-1.687V20.25h1.688A.564.564,0,0,0,45,19.688V16.313A.564.564,0,0,0,44.438,15.75ZM32.063,2.25H28.688A1.683,1.683,0,0,0,27,3.938V15.75H18V3.938A1.683,1.683,0,0,0,16.313,2.25H12.938A1.683,1.683,0,0,0,11.25,3.938V32.063a1.683,1.683,0,0,0,1.688,1.688h3.375A1.683,1.683,0,0,0,18,32.063V20.25h9V32.063a1.683,1.683,0,0,0,1.688,1.688h3.375a1.683,1.683,0,0,0,1.688-1.687V3.938A1.683,1.683,0,0,0,32.063,2.25Z" transform="translate(0 -2.25)"/>
</svg>
