<svg xmlns="http://www.w3.org/2000/svg" width="249.946" height="249.946" viewBox="0 0 249.946 249.946">
  <g id="Icon_ionic-md-sad" data-name="Icon ionic-md-sad" transform="translate(-3.375 -3.375)">
    <path id="Path_33" data-name="Path 33" d="M72.222,20.25A67.948,67.948,0,0,0,10.814,58.7H133.63A67.948,67.948,0,0,0,72.222,20.25Z" transform="translate(56.126 127.325)"/>
    <path id="Path_34" data-name="Path 34" d="M128.348,3.375A124.973,124.973,0,1,0,253.321,128.348C253.321,59.613,197.084,3.375,128.348,3.375Zm0,224.951c-54.987,0-99.981-44.992-99.981-99.978S73.362,28.37,128.348,28.37s99.981,44.991,99.981,99.978S183.335,228.326,128.348,228.326Z"/>
    <path id="Path_35" data-name="Path 35" d="M39.671,49.642A18.41,18.41,0,0,0,58.417,30.9,18.41,18.41,0,0,0,39.671,12.15,18.41,18.41,0,0,0,20.925,30.9,18.41,18.41,0,0,0,39.671,49.642Z" transform="translate(132.417 66.209)"/>
    <path id="Path_36" data-name="Path 36" d="M29.434,49.642A18.41,18.41,0,0,0,48.18,30.9,18.41,18.41,0,0,0,29.434,12.15,18.41,18.41,0,0,0,10.687,30.9,18.41,18.41,0,0,0,29.434,49.642Z" transform="translate(55.173 66.209)"/>
  </g>
</svg>
